{"accessors" : [{"bufferView" : 0, "byteOffset" : 0, "componentType" : 5123, "count" : 918, "type" : "SCALAR", "max" : [829], "min" : [0]}, {"bufferView" : 1, "byteOffset" : 0, "componentType" : 5126, "count" : 830, "type" : "VEC3", "max" : [179.28199768066406, 77.28119659423828, 194.125], "min" : [-180.08099365234375, -77.28130340576172, -137.25], "name" : "POSITION"}, {"bufferView" : 1, "byteOffset" : 12, "componentType" : 5126, "count" : 830, "type" : "VEC3", "max" : [1.0000044107437134, 1.0000044107437134, 1.0000044107437134], "min" : [-1.0000044107437134, -1.0000044107437134, -1.0000044107437134], "name" : "NORMAL"}], "asset" : {"generator" : "Aspose.3D 23.1", "version" : "2.0"}, "buffers" : [{"uri" : "data:application/octet-stream;base64,", "byteLength" : 23876}], "bufferViews" : [{"buffer" : 0, "byteOffset" : 0, "byteLength" : 1836, "target" : 34963}, {"buffer" : 0, "byteOffset" : 1840, "byteLength" : 22032, "byteStride" : 24, "target" : 34962}], "meshes" : [{"primitives" : [{"attributes" : {"POSITION" : 1, "NORMAL" : 2}, "indices" : 0, "mode" : 4}], "name" : ""}], "nodes" : [{"mesh" : 0, "name" : "obj_65375737"}], "scene" : 0, "scenes" : [{"nodes" : [0]}]}